<svg width="89" height="35" viewBox="0 0 89 35" fill="none" xmlns="http://www.w3.org/2000/svg">
<path d="M39.136 0.303999V34H30.928V13.792L23.392 34H16.768L9.184 13.744V34H0.976V0.303999H10.672L20.128 23.632L29.488 0.303999H39.136ZM76.6705 0.303999L64.7185 34H54.4465L42.4945 0.303999H51.2305L59.5825 25.744L67.9825 0.303999H76.6705Z" fill="#3A3A3A"/>
<path d="M83.941 34.384C82.501 34.384 81.317 33.968 80.389 33.136C79.493 32.272 79.045 31.216 79.045 29.968C79.045 28.688 79.493 27.616 80.389 26.752C81.317 25.888 82.501 25.456 83.941 25.456C85.349 25.456 86.501 25.888 87.397 26.752C88.325 27.616 88.789 28.688 88.789 29.968C88.789 31.216 88.325 32.272 87.397 33.136C86.501 33.968 85.349 34.384 83.941 34.384Z" fill="#FF408C"/>
</svg>
