<svg width="173" height="173" viewBox="0 0 173 173" fill="none" xmlns="http://www.w3.org/2000/svg">
<path d="M145.653 26.6037L106.889 51.1689L107.593 5.80876L107.632 3.26996H105.093H68.6268H66.1074L66.1269 5.78936L66.4793 51.1917L27.6796 26.6037L25.44 25.1845L24.1547 27.5035L5.53359 61.1022L4.34635 63.2443L6.46367 64.4753L45.0004 86.8802L6.47942 108.903L4.33768 110.127L5.53359 112.285L24.1547 145.884L25.44 148.203L27.6796 146.783L66.4793 122.195L66.1269 167.598L66.1074 170.117H68.6268H105.093H107.633L107.593 167.578L106.889 122.591L145.667 146.793L147.881 148.175L149.167 145.903L168.176 112.304L169.401 110.138L167.241 108.903L128.72 86.8802L167.256 64.4753L169.392 63.2335L168.176 61.083L149.167 27.4843L147.873 25.1969L145.653 26.6037Z" stroke="#FF408C" stroke-opacity="0.3" stroke-width="5"/>
</svg>
